# xmcd
#
# Track frame offsets: 
#        150
#        10604
#        21767
#        33210
#        44544
#        56173
#        68707
#        80475
#        92262
#        102806
#        115211
#        127666
#        138044
#        147606
#        157795
#        167373
#        178783
#        189358
#        198379
#        209384
#        221210
#        230751
#        240032
#        251412
#        261248
#        272602
#        280952
#        292037
#        304560
#        315318
#
# Disc length: 4351 seconds
#
# Revision: 0
# Processed by: cddbd v1.5.2PL0 Copyright (c) Steve Scherf et al.
# Submitted via: ExactAudioCopy v1.1
#
DISCID=9610fd1e
DTITLE=Sonny James - The Singles Collection 1952-62_CD1
DYEAR=2016
DGENRE=Country
TTITLE0=Short Cut
TTITLE1=Its So Nice To Make Up With You
TTITLE2=That's Me Without You
TTITLE3=Cold Cold Colder
TTITLE4=Somebody Else's Heartache
TTITLE5=The One I Cant Forget
TTITLE6=Poor Boy Rich Lovin'
TTITLE7=My Greatest Thrill
TTITLE8=That's How I Need You
TTITLE9=The Table Next to Mine
TTITLE10=She Done Give Her Heart to Me
TTITLE11=Ocean of Tears (I've Shed for You)
TTITLE12=I Forgot to Remember Santa Claus
TTITLE13=Lovin' Season
TTITLE14=Ain't Gonna Take No Chance
TTITLE15='Til the Last Leaf Shall Fall
TTITLE16=Let's Go Bunny Huggin'
TTITLE17=Pigtails and Ribbons
TTITLE18=For Rent (One Empty Heart)
TTITLE19=My Stolen Love
TTITLE20=Twenty Feet of Muddy Water
TTITLE21=All Mixed Up
TTITLE22=The Cat Came Back
TTITLE23=Hello Old Broken Heart
TTITLE24=Sonny James (The Southern Gentleman) - Young Love
TTITLE25=Sonny James (The Southern Gentleman) - Youre the Reason Im in
TTITLE25=Love.wmv
TTITLE26=Sonny James (The Southern Gentleman) - First Date, First Kiss
TTITLE26=, First Love
TTITLE27=Sonny James (The Southern Gentleman) - Speak to Me
TTITLE28=Sonny James (The Southern Gentleman) - Lovesick Blues
TTITLE29=Sonny James (The Southern Gentleman) - Dear Love
EXTD=
EXTT0=
EXTT1=
EXTT2=
EXTT3=
EXTT4=
EXTT5=
EXTT6=
EXTT7=
EXTT8=
EXTT9=
EXTT10=
EXTT11=
EXTT12=
EXTT13=
EXTT14=
EXTT15=
EXTT16=
EXTT17=
EXTT18=
EXTT19=
EXTT20=
EXTT21=
EXTT22=
EXTT23=
EXTT24=
EXTT25=
EXTT26=
EXTT27=
EXTT28=
EXTT29=
PLAYORDER=
